<?xml version="1.0" standalone="no"?>
<!DOCTYPE svg PUBLIC "-//W3C//DTD SVG 20010904//EN"
 "http://www.w3.org/TR/2001/REC-SVG-20010904/DTD/svg10.dtd">
<svg version="1.0" xmlns="http://www.w3.org/2000/svg"
 width="260.000000pt" height="260.000000pt" viewBox="0 0 260.000000 260.000000"
 preserveAspectRatio="xMidYMid meet">
<metadata>
Created by potrace 1.11, written by Peter Selinger 2001-2013
</metadata>
<g transform="translate(0.000000,260.000000) scale(0.100000,-0.100000)"
fill="#000000" stroke="none">
<path d="M5 2588 c-3 -7 -4 -591 -3 -1298 l3 -1285 1295 0 1295 0 0 1295 0
1295 -1293 3 c-1029 2 -1294 0 -1297 -10z m1563 -388 c263 -67 455 -262 502
-508 l8 -43 -121 3 -120 3 -12 40 c-48 160 -173 276 -340 316 -68 16 -228 16
-295 0 -205 -49 -353 -205 -422 -446 -21 -72 -23 -100 -22 -275 0 -183 2 -200
28 -285 66 -217 188 -355 366 -416 90 -30 251 -37 340 -15 197 51 342 224 369
440 l6 51 119 3 119 3 -6 -53 c-31 -256 -180 -481 -384 -579 -187 -90 -461
-103 -673 -33 -206 68 -371 229 -454 441 -57 145 -70 233 -70 443 1 178 3 204
27 293 115 428 428 662 860 641 54 -3 132 -14 175 -24z"/>
</g>
</svg>
