<?xml version="1.0" standalone="no"?>
<!DOCTYPE svg PUBLIC "-//W3C//DTD SVG 20010904//EN"
 "http://www.w3.org/TR/2001/REC-SVG-20010904/DTD/svg10.dtd">
<svg version="1.0" xmlns="http://www.w3.org/2000/svg"
 width="256.000000pt" height="256.000000pt" viewBox="0 0 256.000000 256.000000"
 preserveAspectRatio="xMidYMid meet">
<metadata>
Created by potrace 1.11, written by Peter Selinger 2001-2013
</metadata>
<g transform="translate(0.000000,256.000000) scale(0.100000,-0.100000)"
fill="#000000" stroke="none">
<path d="M900 2541 c-229 -50 -408 -147 -571 -310 -218 -219 -327 -479 -328
-787 0 -313 106 -575 321 -793 148 -150 357 -270 534 -306 16 -3 38 -8 49 -10
233 -49 501 -12 721 101 48 24 91 44 97 44 6 0 110 -98 231 -219 122 -120 237
-226 256 -236 19 -10 62 -20 97 -23 53 -4 70 -1 117 22 86 42 135 121 135 221
1 90 -23 122 -260 360 -120 121 -219 226 -219 234 0 7 13 36 28 65 171 310
182 696 31 1014 -74 155 -209 318 -354 428 -88 66 -264 150 -380 180 -136 36
-376 43 -505 15z m410 -328 c125 -30 283 -117 367 -201 41 -41 93 -101 93
-106 0 -3 13 -24 29 -48 75 -112 112 -238 117 -398 3 -118 -6 -184 -41 -282
-47 -131 -97 -211 -190 -303 -149 -150 -331 -226 -546 -231 -218 -5 -403 66
-570 217 -111 101 -214 297 -236 452 -56 395 171 763 548 886 119 39 302 45
429 14z"/>
</g>
</svg>
